#!OML:ASF F:\VICON\USERDATA\INSTALL\SteveWalk\SteveWalk.ASF
:FULLY-SPECIFIED
:DEGREES


338
root 0.408396 15.9706 25.5367 18.2958 8.31054 4.81881
lowerback -15.6509 -3.63276 -6.042
upperback -4.63506 -3.84461 0.107911
thorax 4.21338 -1.91195 2.78296
lowerneck -3.96073 -1.79607 -0.823155
upperneck 9.2367 -2.50512 1.64073
head 3.73114 -1.19951 0.573265
rclavicle 3.62999e-014 1.22253e-014
rhumerus -85.5773 -37.8949 -11.2542
rradius 10.2337
rwrist 53.9734
rhand -12.3865 -34.2751
rfingers 7.12502
rthumb 13.6845 -63.8052
lclavicle 3.62999e-014 1.22253e-014
lhumerus -13.039 -9.91523 82.4249
lradius 48.25
lwrist 13.1606
lhand -22.2227 -16.6998
lfingers 7.12502
lthumb 4.19371 13.2386
rfemur -49.5914 -7.69876 19.9562
rtibia 16.7007
rfoot -10.3445 6.45311
rtoes -0.406595
lfemur -1.96596 3.23882 -24.5976
ltibia 18.9711
lfoot -23.0147 -12.2241
ltoes -23.3115
339
root 0.413578 15.947 25.7647 18.2988 8.60211 4.32061
lowerback -15.8227 -3.6756 -5.23866
upperback -4.64365 -4.02768 0.345811
thorax 4.28119 -2.00091 2.53786
lowerneck -3.95728 -1.70583 -0.881331
upperneck 9.08756 -2.36256 1.48141
head 3.67403 -1.1383 0.537592
rclavicle -3.74554e-014 -3.57812e-015
rhumerus -84.5954 -37.5062 -12.6169
rradius 10.3451
rwrist 52.5475
rhand -12.4412 -34.3134
rfingers 7.12502
rthumb 13.6318 -63.847
lclavicle -3.74554e-014 -3.57812e-015
lhumerus -13.2376 -9.5728 82.3963
lradius 49.1552
lwrist 13.2057
lhand -22.4523 -17.2076
lfingers 7.12502
lthumb 3.97205 12.7351
rfemur -49.2126 -6.68429 19.6782
rtibia 17.0106
rfoot -11.2512 5.12867
rtoes -4.12091
lfemur -1.38235 2.48985 -23.8045
ltibia 19.317
lfoot -23.4337 -11.5754
ltoes -26.8794
340
root 0.406987 15.9139 25.9914 18.228 8.39224 4.02288
lowerback -15.7898 -3.62718 -4.89789
upperback -4.83348 -4.03456 0.562147
thorax 4.05682 -1.99597 2.58173
lowerneck -3.6131 -1.6003 -0.99568
upperneck 9.11739 -2.1976 1.29179
head 3.61378 -1.06987 0.504919
rclavicle 2.47114e-014 -2.78299e-015
rhumerus -86.0132 -37.3489 -10.003
rradius 10.3783
rwrist 54.347
rhand -12.7201 -33.8332
rfingers 7.12502
rthumb 13.363 -63.3847
lclavicle 2.47114e-014 -2.78299e-015
lhumerus -14.0278 -9.20304 82.4935
lradius 50.1307
lwrist 13.1365
lhand -22.6815 -17.699
lfingers 7.12502
lthumb 3.7507 12.2477
rfemur -48.9061 -4.9899 18.9533
rtibia 17.8057
rfoot -11.7494 3.09233
rtoes -11.1976
lfemur -1.00314 1.79994 -23.3548
ltibia 19.7316
lfoot -22.4481 -12.1688
ltoes -26.143
341
root 0.405431 15.8753 26.2238 18.11 8.09791 3.86483
lowerback -15.6947 -3.50897 -4.61505
upperback -4.80055 -3.93439 0.680574
thorax 4.02378 -1.94652 2.5718
lowerneck -4.14058 -1.51846 -0.828193
upperneck 9.3002 -2.0575 0.852529
head 3.77006 -1.0109 0.332953
rclavicle -2.90288e-014 -1.31198e-014
rhumerus -89.0113 -37.9446 -4.87024
rradius 10.4253
rwrist 58.196
rhand -12.8736 -33.4934
rfingers 7.12502
rthumb 13.2151 -63.0545
lclavicle -2.90288e-014 -1.31198e-014
lhumerus -14.321 -8.84092 82.5679
lradius 50.9057
lwrist 13.0868
lhand -22.7921 -18.0323
lfingers 7.12502
lthumb 3.64387 11.9163
rfemur -48.8736 -4.24335 18.9213
rtibia 19.165
rfoot -10.7731 2.07318
rtoes -17.5823
lfemur -0.318613 1.24974 -23.1255
ltibia 20.0235
lfoot -21.0937 -12.8721
ltoes -24.6672
342
root 0.406045 15.8475 26.4579 18.0701 7.82104 3.93544
lowerback -15.5849 -3.44701 -4.50986
upperback -4.93325 -3.8786 0.707531
thorax 3.81535 -1.91329 2.56195
lowerneck -3.85707 -1.43241 -0.566442
upperneck 9.07922 -1.91874 0.388219
head 3.626 -0.953626 0.143413
rclavicle 1.99623e-014 -5.1684e-015
rhumerus -90.5912 -37.921 -2.18445
rradius 10.5106
rwrist 60.1427
rhand -12.9906 -33.4596
rfingers 7.12502
rthumb 13.1023 -63.028
lclavicle 1.99623e-014 -5.1684e-015
lhumerus -14.9233 -8.53471 82.6506
lradius 51.6602
lwrist 13.2145
lhand -22.8538 -18.3063
lfingers 7.12502
lthumb 3.58431 11.6433
rfemur -49.1299 -4.19478 19.1411
rtibia 20.8826
rfoot -8.35773 1.78789
rtoes -24.6674
lfemur 0.515378 0.726686 -23.1647
ltibia 20.1807
lfoot -20.0469 -12.7323
ltoes -27.0829
343
root 0.392543 15.8365 26.6924 18.2255 7.2047 4.30177
lowerback -15.6593 -3.46806 -4.97266
upperback -5.14494 -3.83623 0.715268
thorax 3.65464 -1.88542 2.84154
lowerneck -3.57617 -1.28521 -0.345965
upperneck 8.99819 -1.70367 0.00917934
head 3.53529 -0.855596 -0.0075455
rclavicle 6.43565e-015 3.18055e-015
rhumerus -91.3519 -37.7482 -0.52466
rradius 10.4348
rwrist 61.4899
rhand -13.3619 -33.3307
rfingers 7.12502
rthumb 12.7444 -62.9218
lclavicle 6.43565e-015 3.18055e-015
lhumerus -15.8424 -8.06896 82.6416
lradius 52.576
lwrist 13.3423
lhand -23.1229 -18.3406
lfingers 7.12502
lthumb 3.32443 11.6133
rfemur -49.6454 -3.49757 18.564
rtibia 22.6889
rfoot -5.69687 1.83821
rtoes -27.0329
lfemur 0.942593 0.193475 -23.6229
ltibia 20.461
lfoot -18.8108 -12.4648
ltoes -29.4229
344
root 0.413294 15.8525 26.9244 18.0239 7.59383 3.6842
lowerback -15.555 -3.36969 -3.77246
upperback -4.97376 -3.90465 0.97295
thorax 3.73245 -1.92438 2.42469
lowerneck -4.45269 -1.25264 -0.538428
upperneck 9.1672 -1.61483 -0.273023
head 3.76456 -0.829761 -0.070394
rclavicle 2.98177e-015 -1.86858e-014
rhumerus -92.156 -38.291 1.29734
rradius 10.3852
rwrist 62.6758
rhand -13.5178 -33.0727
rfingers 7.12502
rthumb 12.5941 -62.673
lclavicle 2.98177e-015 -1.86858e-014
lhumerus -16.1513 -7.69795 82.9246
lradius 53.3386
lwrist 13.4059
lhand -23.4681 -18.4111
lfingers 7.12502
lthumb 2.99101 11.5477
rfemur -49.6652 -4.2252 19.6394
rtibia 24.2817
rfoot -4.01912 3.29145
rtoes -23.554
lfemur 1.39169 -0.743259 -22.837
ltibia 21.2452
lfoot -17.9075 -12.4792
ltoes -31.3097
345
root 0.426999 15.8496 27.1626 17.9819 7.44324 2.94505
lowerback -15.7686 -3.18385 -2.65867
upperback -4.99083 -3.83569 1.24454
thorax 3.7748 -1.88999 2.08793
lowerneck -4.37393 -1.13428 -0.382567
upperneck 9.03747 -1.41857 -0.817679
head 3.69743 -0.75028 -0.266658
rclavicle -6.79347e-014 -3.97569e-016
rhumerus -92.464 -38.5486 2.20486
rradius 10.4474
rwrist 63.3156
rhand -13.2072 -33.2544
rfingers 7.12502
rthumb 12.8935 -62.8361
lclavicle -6.79347e-014 -3.97569e-016
lhumerus -16.9179 -7.20567 83.1796
lradius 53.9465
lwrist 13.5338
lhand -23.7109 -19.3859
lfingers 7.12502
lthumb 2.75657 10.576
rfemur -49.927 -4.33275 20.6426
rtibia 25.8001
rfoot -3.26783 4.47487
rtoes -23.9118
lfemur 1.44296 -1.26241 -22.1195
ltibia 22.582
lfoot -17.1025 -12.5524
ltoes -33.4042
346
root 0.443889 15.8427 27.3979 18.0087 7.02952 1.62036
lowerback -16.1192 -2.81995 -0.890793
upperback -5.03307 -3.64246 1.59369
thorax 3.82441 -1.79298 1.48334
lowerneck -4.57411 -0.94614 -0.0700149
upperneck 9.19546 -1.13842 -1.35696
head 3.78844 -0.625017 -0.489368
rclavicle 1.81702e-014 -1.51076e-014
rhumerus -94.8136 -38.9838 6.27189
rradius 10.4198
rwrist 66.4009
rhand -13.134 -33.1813
rfingers 7.12502
rthumb 12.964 -62.7586
lclavicle 1.81702e-014 -1.51076e-014
lhumerus -17.7246 -6.73839 83.2748
lradius 54.4048
lwrist 13.7553
lhand -23.8756 -20.3959
lfingers 7.12502
lthumb 2.59751 9.56802
rfemur -50.2582 -3.94412 22.1422
rtibia 27.364
rfoot -3.80242 5.19645
rtoes -29.4277
lfemur 1.03786 -1.27928 -20.9053
ltibia 24.4653
lfoot -15.1845 -13.99
ltoes -31.2184
347
root 0.459193 15.8408 27.6329 17.8273 7.09432 0.865942
lowerback -16.0792 -2.70576 0.334073
upperback -4.96798 -3.69843 1.85104
thorax 3.81567 -1.81995 1.0542
lowerneck -5.19327 -0.7063 -0.0113568
upperneck 9.42496 -0.783787 -1.6829
head 3.99421 -0.465133 -0.59755
rclavicle 6.6655e-015 2.8625e-014
rhumerus -97.1398 -39.4465 10.2648
rradius 10.418
rwrist 69.4527
rhand -13.1395 -32.8405
rfingers 7.12502
rthumb 12.9587 -62.4181
lclavicle 6.6655e-015 2.8625e-014
lhumerus -18.5375 -6.23402 83.4315
lradius 54.9028
lwrist 13.9136
lhand -23.9823 -20.4264
lfingers 7.12502
lthumb 2.49446 9.5388
rfemur -50.1343 -3.46649 22.6847
rtibia 29.076
rfoot -4.5824 4.54081
rtoes -32.4255
lfemur 0.537625 -1.60354 -20.0896
ltibia 26.804
lfoot -11.4414 -14.5738
ltoes -24.7284
348
root 0.462639 15.8314 27.8589 17.898 6.44256 1.08214
lowerback -16.0131 -2.5838 0.273438
upperback -5.03259 -3.52939 1.89209
thorax 3.71506 -1.73702 1.16834
lowerneck -5.04413 -0.462846 0.0165039
upperneck 9.11165 -0.423914 -2.10186
head 3.85732 -0.302743 -0.720295
rclavicle 5.54485e-014 1.19271e-015
rhumerus -97.4266 -39.8315 11.1402
rradius 10.4145
rwrist 70.1184
rhand -13.2481 -32.804
rfingers 7.12502
rthumb 12.8541 -62.3882
lclavicle 5.54485e-014 1.19271e-015
lhumerus -19.6507 -5.48612 83.7575
lradius 55.5529
lwrist 13.9365
lhand -23.9897 -19.5891
lfingers 7.12502
lthumb 2.4873 10.3761
rfemur -50.3327 -2.48422 21.9883
rtibia 30.8524
rfoot -4.84435 3.80793
rtoes -28.8437
lfemur -0.397163 -1.53334 -20.5418
ltibia 29.5096
lfoot -8.17371 -14.7923
ltoes -22.0799
349
root 0.46139 15.832 28.0839 18.0448 5.61709 1.32422
lowerback -16.0263 -2.43183 0.0935457
upperback -5.15766 -3.30112 1.91526
thorax 3.5963 -1.6243 1.33997
lowerneck -5.17822 -0.403535 0.210297
upperneck 9.24203 -0.30057 -2.70112
head 3.93327 -0.263477 -0.950478
rclavicle -2.08724e-014 3.97569e-015
rhumerus -97.7954 -40.2384 12.1155
rradius 10.3706
rwrist 70.9049
rhand -13.5733 -32.9166
rfingers 7.12502
rthumb 12.5405 -62.5203
lclavicle -2.08724e-014 3.97569e-015
lhumerus -20.8823 -4.79363 84.0526
lradius 56.1092
lwrist 14.1102
lhand -23.9802 -18.7144
lfingers 7.12502
lthumb 2.4965 11.2507
rfemur -50.686 -1.54051 21.3958
rtibia 32.6128
rfoot -5.13388 3.95566
rtoes -20.7413
lfemur -1.67338 -1.09565 -21.051
ltibia 32.4193
lfoot -4.33617 -15.0036
ltoes -19.3471
